<svg xmlns="http://www.w3.org/2000/svg" viewBox="0 0 550.53 150.17"><defs><style>.cls-1{fill:#fefefe;}</style></defs><g id="Layer_2" data-name="Layer 2"><g id="Layer_1-2" data-name="Layer 1"><path class="cls-1" d="M70.83,0C70.59,1,69,8.38,73.9,14.68a17.32,17.32,0,0,0,9.86,6.13"/><path class="cls-1" d="M66.67,5.92c-.24,1,1.22,11.23,6.13,17.52a17.35,17.35,0,0,0,9.86,6.14"/><path class="cls-1" d="M62.41,12.24c-.24,1,1.22,11.23,6.13,17.53,3.55,4.55,12.64,7.59,14.12,7.91"/><path class="cls-1" d="M58.72,17.75c-.24,1,1.25,12.87,6.16,19.17,3.55,4.55,16.3,7.59,17.78,7.91"/><path class="cls-1" d="M54.4,23.74c-.24,1,2.12,10.53,5.7,17.67C64,49.29,82.28,53.57,83.76,53.89"/><path class="cls-1" d="M50.78,31.29c-.23,1,2.13,10.53,5.7,17.67,3.94,7.89,22.18,12.16,23.66,12.49"/><path class="cls-1" d="M63.07,150.17c.24-1,1.85-8.38-3.06-14.68a17.32,17.32,0,0,0-9.86-6.13"/><path class="cls-1" d="M67.24,144.25c.23-1-1.23-11.23-6.14-17.52a17.35,17.35,0,0,0-9.86-6.14"/><path class="cls-1" d="M71.5,137.93c.23-1-1.23-11.23-6.14-17.53-3.55-4.55-12.64-7.59-14.12-7.91"/><path class="cls-1" d="M75.19,132.42c.23-1-1.25-12.87-6.16-19.17-3.55-4.55-16.31-7.59-17.79-7.91"/><path class="cls-1" d="M79.51,126.43c.23-1-2.13-10.53-5.7-17.67-3.94-7.89-22.18-12.16-23.66-12.49"/><path class="cls-1" d="M83.12,118.88c.24-1-2.12-10.53-5.69-17.67-4-7.89-22.19-12.16-23.66-12.49"/><path class="cls-1" d="M4.43,33.33c.74.71,6.26,5.87,14.18,4.88a17.33,17.33,0,0,0,10.32-5.34"/><path class="cls-1" d="M7.38,39.93c.74.72,10.28,4.7,18.2,3.7A17.32,17.32,0,0,0,35.89,38.3"/><path class="cls-1" d="M10.64,46.83c.74.72,10.27,4.7,18.19,3.7,5.73-.72,13-7,14-8.08"/><path class="cls-1" d="M13.48,52.82c.74.71,11.7,5.51,19.62,4.52C38.83,56.62,48,47.21,49,46.11"/><path class="cls-1" d="M16.41,59.59c.74.72,10.14,3.56,18.1,4.15,8.79.65,21.8-12.83,22.84-13.94"/><path class="cls-1" d="M21.05,66.56c.74.72,10.13,3.57,18.1,4.15C47.94,71.36,61,57.88,62,56.78"/><path class="cls-1" d="M129.48,116.84c-.74-.71-6.26-5.87-14.18-4.88A17.39,17.39,0,0,0,105,117.29"/><path class="cls-1" d="M126.52,110.24c-.74-.72-10.27-4.7-18.19-3.7A17.34,17.34,0,0,0,98,111.87"/><path class="cls-1" d="M123.27,103.34c-.74-.72-10.28-4.7-18.2-3.7-5.73.72-13,7-14,8.08"/><path class="cls-1" d="M120.43,97.35c-.74-.71-11.7-5.51-19.62-4.52-5.73.72-14.87,10.13-15.9,11.23"/><path class="cls-1" d="M117.49,90.58c-.74-.72-10.13-3.57-18.09-4.15-8.8-.65-21.81,12.83-22.84,13.93"/><path class="cls-1" d="M112.85,83.6c-.73-.71-10.13-3.56-18.09-4.14C86,78.81,73,92.29,71.92,93.39"/><path class="cls-1" d="M0,109.29c1-.3,8.18-2.6,11.18-10a17.34,17.34,0,0,0,.37-11.6"/><path class="cls-1" d="M7.2,109.94c1-.3,9.12-6.68,12.11-14.08a17.32,17.32,0,0,0,.38-11.61"/><path class="cls-1" d="M14.81,110.46c1-.3,9.12-6.68,12.11-14.08,2.17-5.35.25-14.74-.21-16.19"/><path class="cls-1" d="M21.43,110.9c1-.3,10.52-7.52,13.51-14.92,2.17-5.36-1.58-17.92-2-19.36"/><path class="cls-1" d="M28.77,111.64c1-.29,8.06-7.1,12.45-13.77,4.86-7.36-.56-25.29-1-26.73"/><path class="cls-1" d="M37.12,111c1-.3,8.05-7.11,12.45-13.78,4.86-7.36-.56-25.29-1-26.73"/><path class="cls-1" d="M133.91,40.88c-1,.3-8.18,2.6-11.18,10a17.29,17.29,0,0,0-.38,11.6"/><path class="cls-1" d="M126.7,40.23c-1,.3-9.11,6.68-12.11,14.08a17.45,17.45,0,0,0-.38,11.61"/><path class="cls-1" d="M119.09,39.71c-1,.3-9.11,6.68-12.11,14.08-2.16,5.35-.24,14.74.22,16.18"/><path class="cls-1" d="M112.48,39.27c-1,.3-10.52,7.52-13.52,14.92-2.17,5.35,1.59,17.92,2.05,19.36"/><path class="cls-1" d="M105.13,38.53c-1,.29-8,7.1-12.45,13.77-4.85,7.36.57,25.29,1,26.73"/><path class="cls-1" d="M96.78,39.17c-1,.3-8,7.11-12.45,13.77-4.85,7.37.57,25.3,1,26.74"/><path class="cls-1" d="M190,96.92a26.59,26.59,0,0,1-13.22-3.11,20.7,20.7,0,0,1-8.56-9.17,33.19,33.19,0,0,1-3-14.81,33.29,33.29,0,0,1,2.85-14.34,21,21,0,0,1,8.42-9.32,26.43,26.43,0,0,1,13.65-3.29A28,28,0,0,1,202,45.23,20,20,0,0,1,210,51.81a20.87,20.87,0,0,1,3.64,9.86l-11.48,1.59a12,12,0,0,0-3.9-7.55,12.3,12.3,0,0,0-8.24-2.64q-6.13,0-9.5,4.23t-3.36,12.53q0,8.08,3.25,12.5t9.61,4.4a12.7,12.7,0,0,0,8.45-2.67,11.75,11.75,0,0,0,3.91-7.58l11.48,1.3a20.74,20.74,0,0,1-3.83,10.36,20.05,20.05,0,0,1-8.34,6.54A29.3,29.3,0,0,1,190,96.92Z"/><path class="cls-1" d="M227.18,108.84a19.33,19.33,0,0,1-2.92-.22,10,10,0,0,1-2.35-.57v-8.6h.58a6,6,0,0,0,2.6.43,7.92,7.92,0,0,0,4-.87,5.47,5.47,0,0,0,2.31-3.1l.73-2L216.57,54.59h12.2l5,15.75q.8,2.59,1.8,6.06c.68,2.32,1.35,4.84,2,7.59q1-4,1.88-7.15t1.95-6.5l5.12-15.75H257.6l-16,43.85q-2.1,5.7-5.42,8T227.18,108.84Z"/><path class="cls-1" d="M262.37,96.2V39.13h11.27V60.22a11.2,11.2,0,0,1,5-4.8,16,16,0,0,1,7.15-1.56,16.74,16.74,0,0,1,9.5,2.68,17.39,17.39,0,0,1,6.21,7.55,27.76,27.76,0,0,1,2.21,11.52,27.19,27.19,0,0,1-2.17,11.3,16.92,16.92,0,0,1-6.1,7.41,17.84,17.84,0,0,1-17,.83,11,11,0,0,1-5-5l-.65,6.07ZM273.64,77c0,3.42.81,6.07,2.45,8A8.63,8.63,0,0,0,283,87.75a8.15,8.15,0,0,0,6.9-3.18c1.62-2.12,2.42-5.13,2.42-9,0-4.05-.79-7.14-2.38-9.29A8.11,8.11,0,0,0,283,63,8.43,8.43,0,0,0,276.06,66c-1.62,2-2.42,4.69-2.42,8.2Z"/><path class="cls-1" d="M329.77,96.92a22.73,22.73,0,0,1-10.84-2.53,18.35,18.35,0,0,1-7.48-7.29,23.15,23.15,0,0,1-2.71-11.56,24.24,24.24,0,0,1,2.57-11.45,18.38,18.38,0,0,1,7.22-7.55,21.67,21.67,0,0,1,11-2.68,20.49,20.49,0,0,1,11,2.89,17.23,17.23,0,0,1,6.86,8.38q2.25,5.49,1.52,13.44H320q.58,5.13,3.15,7.44a9.7,9.7,0,0,0,6.75,2.31A10.77,10.77,0,0,0,336,86.7a6.85,6.85,0,0,0,3-4.52l9.68,2.46a13.71,13.71,0,0,1-3.46,6.43,18,18,0,0,1-6.58,4.3A24.34,24.34,0,0,1,329.77,96.92Zm-.51-34.6a8.48,8.48,0,0,0-6.07,2.24,11.28,11.28,0,0,0-3.1,6.64h17.48a9.39,9.39,0,0,0-2.28-6.57A7.94,7.94,0,0,0,329.26,62.32Z"/><path class="cls-1" d="M355.7,96.2V54.59H366l.5,6.79q3.33-7.31,9.9-7.3a10.68,10.68,0,0,1,3.54.51V65h-.43a10.3,10.3,0,0,0-3.33-.43,9.59,9.59,0,0,0-6.21,1.91,8.35,8.35,0,0,0-3,5.31V96.2Z"/><path class="cls-1" d="M400.85,96.92q-8.44,0-13-3.65a13.58,13.58,0,0,1-5-9.93L393.55,82a7,7,0,0,0,1.95,5.38,7.93,7.93,0,0,0,5.78,2A8.13,8.13,0,0,0,406,88.14a4,4,0,0,0,1.69-3.5,3.53,3.53,0,0,0-1.37-3,10.14,10.14,0,0,0-3.79-1.55l-5.67-1.26a35.58,35.58,0,0,1-6.72-2.31,11.4,11.4,0,0,1-4.52-3.69A10.07,10.07,0,0,1,384,66.87a11.2,11.2,0,0,1,4.73-9.5q4.72-3.51,12.53-3.51t12.32,3.36a12,12,0,0,1,4.81,8.92l-10.48,1.45a5.87,5.87,0,0,0-1.84-4.7,7.61,7.61,0,0,0-5.1-1.58,7,7,0,0,0-4.33,1.15,3.63,3.63,0,0,0,1.19,6.47,63.51,63.51,0,0,0,8,2.06A40.1,40.1,0,0,1,412.41,73a11.68,11.68,0,0,1,4.91,3.76,11.12,11.12,0,0,1,1.88,6.83,11.62,11.62,0,0,1-4.66,9.64Q409.88,96.92,400.85,96.92Z"/><path class="cls-1" d="M431.19,108.84a19.33,19.33,0,0,1-2.92-.22,10,10,0,0,1-2.35-.57v-8.6h.58a6,6,0,0,0,2.6.43,7.94,7.94,0,0,0,4-.87,5.47,5.47,0,0,0,2.31-3.1l.72-2L420.57,54.59h12.21l5,15.75q.8,2.59,1.8,6.06c.68,2.32,1.35,4.84,2,7.59.67-2.7,1.3-5.08,1.87-7.15s1.23-4.24,1.95-6.5l5.13-15.75h11.06l-16,43.85q-2.1,5.7-5.42,8C437.93,108.06,435,108.84,431.19,108.84Z"/><path class="cls-1" d="M466.37,96.2V54.59H476.7l.44,5.63a14.92,14.92,0,0,1,5.45-4.84,16.1,16.1,0,0,1,7.19-1.52q6.44,0,10.22,3.65t3.8,10.66v28H492.6V70a6,6,0,0,0-1.77-4.66,7.18,7.18,0,0,0-5-1.62,8,8,0,0,0-5.64,2.13,8.25,8.25,0,0,0-2.53,5.82V96.2Z"/><path class="cls-1" d="M531.39,96.92a21.51,21.51,0,0,1-11-2.71,18.69,18.69,0,0,1-7.22-7.55,23.69,23.69,0,0,1-2.57-11.27,23.31,23.31,0,0,1,2.61-11.3,18.9,18.9,0,0,1,7.26-7.52,21.55,21.55,0,0,1,11-2.71q8.24,0,13.15,4a15.48,15.48,0,0,1,5.64,10.69L539.7,70.05a7.12,7.12,0,0,0-2.64-5.31,9.35,9.35,0,0,0-5.74-1.7,8.39,8.39,0,0,0-7,3.25q-2.57,3.25-2.57,9.1c0,3.9.84,6.94,2.53,9.1a8.39,8.39,0,0,0,7,3.26,8.75,8.75,0,0,0,6-2,7.77,7.77,0,0,0,2.49-5.63l10.69,1.51a16,16,0,0,1-2.92,8.13A16.28,16.28,0,0,1,540.93,95,23.17,23.17,0,0,1,531.39,96.92Z"/></g></g></svg>