<svg xmlns="http://www.w3.org/2000/svg" viewBox="0 0 150 150.17"><defs><style>.cls-1{fill:#fefefe;}</style></defs><g id="Layer_2" data-name="Layer 2"><g id="Layer_1-2" data-name="Layer 1"><path class="cls-1" d="M70.83,0C70.59,1,69,8.38,73.9,14.68a17.32,17.32,0,0,0,9.86,6.13"/><path class="cls-1" d="M66.67,5.92c-.24,1,1.22,11.23,6.13,17.52a17.35,17.35,0,0,0,9.86,6.14"/><path class="cls-1" d="M62.41,12.24c-.24,1,1.22,11.23,6.13,17.53,3.55,4.55,12.64,7.59,14.12,7.91"/><path class="cls-1" d="M58.72,17.75c-.24,1,1.25,12.87,6.16,19.17,3.55,4.55,16.3,7.59,17.78,7.91"/><path class="cls-1" d="M54.4,23.74c-.24,1,2.12,10.53,5.7,17.67C64,49.29,82.28,53.57,83.76,53.89"/><path class="cls-1" d="M50.78,31.29c-.23,1,2.13,10.53,5.7,17.67,3.94,7.89,22.18,12.16,23.66,12.49"/><path class="cls-1" d="M63.07,150.17c.24-1,1.85-8.38-3.06-14.68a17.32,17.32,0,0,0-9.86-6.13"/><path class="cls-1" d="M67.24,144.25c.23-1-1.23-11.23-6.14-17.52a17.35,17.35,0,0,0-9.86-6.14"/><path class="cls-1" d="M71.5,137.93c.23-1-1.23-11.23-6.14-17.53-3.55-4.55-12.64-7.59-14.12-7.91"/><path class="cls-1" d="M75.19,132.42c.23-1-1.25-12.87-6.16-19.17-3.55-4.55-16.31-7.59-17.79-7.91"/><path class="cls-1" d="M79.51,126.43c.23-1-2.13-10.53-5.7-17.67-3.94-7.89-22.18-12.16-23.66-12.49"/><path class="cls-1" d="M83.12,118.88c.24-1-2.12-10.53-5.69-17.67-4-7.89-22.19-12.16-23.66-12.49"/><path class="cls-1" d="M4.43,33.33c.74.71,6.26,5.87,14.18,4.88a17.33,17.33,0,0,0,10.32-5.34"/><path class="cls-1" d="M7.38,39.93c.74.72,10.28,4.7,18.2,3.7A17.32,17.32,0,0,0,35.89,38.3"/><path class="cls-1" d="M10.64,46.83c.74.72,10.27,4.7,18.19,3.7,5.73-.72,13-7,14-8.08"/><path class="cls-1" d="M13.48,52.82c.74.71,11.7,5.51,19.62,4.52C38.83,56.62,48,47.21,49,46.11"/><path class="cls-1" d="M16.41,59.59c.74.72,10.14,3.56,18.1,4.15,8.79.65,21.8-12.83,22.84-13.94"/><path class="cls-1" d="M21.05,66.56c.74.72,10.13,3.57,18.1,4.15C47.94,71.36,61,57.88,62,56.78"/><path class="cls-1" d="M129.48,116.84c-.74-.71-6.26-5.87-14.18-4.88A17.39,17.39,0,0,0,105,117.29"/><path class="cls-1" d="M126.52,110.24c-.74-.72-10.27-4.7-18.19-3.7A17.34,17.34,0,0,0,98,111.87"/><path class="cls-1" d="M123.27,103.34c-.74-.72-10.28-4.7-18.2-3.7-5.73.72-13,7-14,8.08"/><path class="cls-1" d="M120.43,97.35c-.74-.71-11.7-5.51-19.62-4.52-5.73.72-14.87,10.13-15.9,11.23"/><path class="cls-1" d="M117.49,90.58c-.74-.72-10.13-3.57-18.09-4.15-8.8-.65-21.81,12.83-22.84,13.93"/><path class="cls-1" d="M112.85,83.6c-.73-.71-10.13-3.56-18.09-4.14C86,78.81,73,92.29,71.92,93.39"/><path class="cls-1" d="M0,109.29c1-.3,8.18-2.6,11.18-10a17.34,17.34,0,0,0,.37-11.6"/><path class="cls-1" d="M7.2,109.94c1-.3,9.12-6.68,12.11-14.08a17.32,17.32,0,0,0,.38-11.61"/><path class="cls-1" d="M14.81,110.46c1-.3,9.12-6.68,12.11-14.08,2.17-5.35.25-14.74-.21-16.19"/><path class="cls-1" d="M21.43,110.9c1-.3,10.52-7.52,13.51-14.92,2.17-5.36-1.58-17.92-2-19.36"/><path class="cls-1" d="M28.77,111.64c1-.29,8.06-7.1,12.45-13.77,4.86-7.36-.56-25.29-1-26.73"/><path class="cls-1" d="M37.12,111c1-.3,8.05-7.11,12.45-13.78,4.86-7.36-.56-25.29-1-26.73"/><path class="cls-1" d="M133.91,40.88c-1,.3-8.18,2.6-11.18,10a17.29,17.29,0,0,0-.38,11.6"/><path class="cls-1" d="M126.7,40.23c-1,.3-9.11,6.68-12.11,14.08a17.45,17.45,0,0,0-.38,11.61"/><path class="cls-1" d="M119.09,39.71c-1,.3-9.11,6.68-12.11,14.08-2.16,5.35-.24,14.74.22,16.18"/><path class="cls-1" d="M112.48,39.27c-1,.3-10.52,7.52-13.52,14.92-2.17,5.35,1.59,17.92,2.05,19.36"/><path class="cls-1" d="M105.13,38.53c-1,.29-8,7.1-12.45,13.77-4.85,7.36.57,25.29,1,26.73"/><path class="cls-1" d="M96.78,39.17c-1,.3-8,7.11-12.45,13.77-4.85,7.37.57,25.3,1,26.74"/></g></g></svg>